<svg xmlns="http://www.w3.org/2000/svg" id="man-avatar-profile-account-human-person-people" width="64" height="64" viewBox="0 0 16 16">
  <g transform="translate(0 -1036.362)">
    <circle cx="8" cy="1044.362" r="8" fill="#ef4c45" fill-rule="evenodd"></circle>
    <path fill="#2a2f3c" d="M5.887 1046.164h4.203v1.008H5.887z"></path>
    <rect width="6.755" height="4.812" x="4.407" y="1039.362" fill="#272a4d" rx="1.925" ry="1.925"></rect>
    <path fill="#ffce77" fill-rule="evenodd" d="M6.521 1040.907c-.408-.072-.87.22-.87 1.014.013.597 0 1.278 0 1.927v.239c.06.847.287 1.44.742 1.804-.053.42-.236.664-.538.887-.355.264-.873.468-1.42.701-.546.234-1.125.514-1.572 1.008-.315.349-.545.804-.656 1.389A8 8 0 0 0 8 1052.362a8 8 0 0 0 5.783-2.484c-.113-.566-.342-1.012-.652-1.346-.444-.478-1.02-.733-1.56-.961-.54-.228-1.054-.43-1.405-.701-.344-.266-.543-.574-.55-1.162.474-.393.701-.947.722-1.621v-.239c0-3.142-1.913-1.433-2.68-2.142-.767-.71-.891-.756-1.137-.8z"></path>
    <path fill="#414d6a" fill-rule="evenodd" d="m9.836 1046.436-1.832 2.39-1.832-2.355a1.47 1.47 0 0 1-.293.295c-.356.265-.883.465-1.43.7-.546.234-1.13.535-1.576 1.03-.317.353-.548.801-.658 1.387A8 8 0 0 0 8 1052.362a8 8 0 0 0 5.787-2.49c-.113-.564-.34-1.005-.65-1.34-.444-.48-1.001-.728-1.541-.957-.54-.229-1.042-.464-1.393-.736a1.332 1.332 0 0 1-.367-.403z"></path>
    <path fill="#323b52" d="m5.967 1046.21 1.296 1.68-.692.575c-.231.231-.369.035-.43-.073l-.806-1.31.45-.838c.068-.12.138-.077.181-.034zm4.039 0-1.296 1.68.692.575c.23.231.368.035.43-.073l.805-1.31-.448-.838c-.07-.12-.139-.077-.183-.034z"></path>
  </g>
</svg>
